Coordinates
version=1
nRows=29
nColumns=24
inDegrees=yes

Units are S.I. units (second, meters, Newtons, ...)
Angles are in degrees.

endheader
time	pelvis_tilt	pelvis_list	pelvis_rotation	pelvis_tx	pelvis_ty	pelvis_tz	hip_flexion_r	hip_adduction_r	hip_rotation_r	knee_angle_r	ankle_angle_r	subtalar_angle_r	mtp_angle_r	hip_flexion_l	hip_adduction_l	hip_rotation_l	knee_angle_l	ankle_angle_l	subtalar_angle_l	mtp_angle_l	lumbar_extension	lumbar_bending	lumbar_rotation
      0.80433333	     -3.25564103	     -2.32788361	      0.10472723	     -0.34056582	      0.99513450	      0.33121525	     16.08719109	      5.97925008	      0.48364329	    -23.92506435	     12.08210581	    -10.81393234	      2.33633902	     15.57973096	     -3.81264814	     -2.71976627	    -71.22608819	     -7.39025226	     -7.26932204	      7.32136360	     -9.85821482	      9.45292799	     -1.47727856
      0.80850000	     -3.21744069	     -2.22412570	      0.07399072	     -0.33539388	      0.99623087	      0.33157475	     15.50003632	      5.92736037	      0.67679717	    -23.48113473	     12.08096081	    -10.93219454	      1.88647177	     16.15551263	     -3.80220927	     -2.87112161	    -71.25270026	     -6.87105442	     -7.64337910	      4.43637286	     -9.92718399	      9.24607088	     -1.17373305
      0.81266667	     -3.14123391	     -2.07191166	      0.07453349	     -0.33024742	      0.99736023	      0.33184446	     14.89006994	      5.80158296	      0.78928156	    -23.07614398	     12.12807637	    -11.01046296	      1.87649014	     16.68211708	     -3.71259952	     -2.98845787	    -71.20569140	     -6.45044734	     -8.13929216	      4.41782064	    -10.05584666	      8.97919176	     -0.93583183
      0.81683333	     -3.05054677	     -1.93883746	      0.04528019	     -0.32501780	      0.99854263	      0.33216589	     14.22178718	      5.70914391	      0.96784570	    -22.58526997	     12.13029584	    -11.14186057	      1.85738841	     17.16291174	     -3.66010745	     -3.14458706	    -71.08099492	     -6.08297685	     -8.59100979	      4.36859622	    -10.17438430	      8.72242987	     -0.54469263
      0.82100000	     -2.99865322	     -1.80018988	      0.01117711	     -0.31982814	      0.99961249	      0.33248142	     13.61128685	      5.60671794	      1.13319790	    -22.12324851	     12.13058813	    -11.25715099	      1.83564284	     17.68318292	     -3.59903518	     -3.30149082	    -70.92129156	     -5.67371269	     -9.02265511	      4.30359505	    -10.25420388	      8.46701032	     -0.21866428
      0.82516667	     -2.92389787	     -1.64472395	     -0.02484992	     -0.31464332	      1.00070180	      0.33276969	     12.97991273	      5.47933854	      1.28324892	    -21.66796954	     12.12580815	    -11.33310888	      1.81585376	     18.16254158	     -3.51187087	     -3.46021077	    -70.70019220	     -5.23426317	     -9.44532429	      4.24097718	    -10.37357988	      8.19841908	      0.03558132
      0.82933333	     -2.83070799	     -1.49806709	     -0.06088853	     -0.30940718	      1.00181319	      0.33305196	     12.30225153	      5.35998802	      1.43984585	    -21.15945654	     12.12349641	    -11.44223139	      1.78777117	     18.60307579	     -3.43661049	     -3.62066428	    -70.41521007	     -4.85171397	     -9.82905788	      4.14350426	    -10.48334909	      7.94115144	      0.38180935
      0.83350000	     -2.75325949	     -1.33920420	     -0.10032230	     -0.30419718	      1.00285668	      0.33331858	     11.65406864	      5.22254009	      1.58309273	    -20.67414755	     12.11780301	    -11.52844230	      1.75616363	     19.05070857	     -3.34117652	     -3.77866398	    -70.08389764	     -4.42757932	    -10.18677461	      4.02862262	    -10.58619002	      7.66979352	      0.67632561
      0.83766667	     -2.71509214	     -1.17447109	     -0.13650008	     -0.29902087	      1.00378578	      0.33355674	     11.06569778	      5.07142941	      1.70068320	    -20.22056693	     12.11031807	    -11.56106437	      1.73269247	     19.53571895	     -3.22915461	     -3.92236092	    -69.71431542	     -3.96441346	    -10.52798547	      3.94546656	    -10.65546166	      7.40352168	      0.87676853
      0.84183333	     -2.62869460	     -1.01102377	     -0.17222642	     -0.29378173	      1.00479222	      0.33378152	     10.39514224	      4.91944837	      1.82610393	    -19.70733046	     12.11463714	    -11.64502577	      1.69693199	     19.94351351	     -3.12077247	     -4.07407023	    -69.27144897	     -3.57420066	    -10.82589111	      3.81064222	    -10.75657196	      7.13036357	      1.20185347
      0.84600000	     -2.55658427	     -0.85627698	     -0.20604407	     -0.28856399	      1.00571949	      0.33398438	      9.74892846	      4.77187494	      1.93132811	    -19.20762154	     12.10466907	    -11.70284389	      1.65572528	     20.35888847	     -3.01508878	     -4.21340967	    -68.79209854	     -3.12937669	    -11.08196460	      3.65615066	    -10.84103957	      6.87820126	      1.46667235
      0.85016667	     -2.55012293	     -0.68673252	     -0.23413071	     -0.28336436	      1.00651148	      0.33413031	      9.19569199	      4.59666916	      1.98922688	    -18.75150182	     12.09068619	    -11.69391221	      1.63631338	     20.83696606	     -2.87960054	     -4.33932009	    -68.26928825	     -2.65319244	    -11.32040388	      3.59058231	    -10.83867385	      6.63923595	      1.58257967
      0.85433333	     -2.44883288	     -0.52302814	     -0.25691694	     -0.27816906	      1.00742146	      0.33428681	      8.50879654	      4.43400036	      2.10097546	    -18.22620398	     12.09224486	    -11.76108750	      1.59561765	     21.19135334	     -2.74094665	     -4.43976947	    -67.67458107	     -2.25750961	    -11.50669240	      3.44099752	    -10.98689782	      6.37355719	      1.88702920
      0.85850000	     -2.40654680	     -0.37583141	     -0.28142718	     -0.27296249	      1.00817873	      0.33443136	      7.89969094	      4.28280591	      2.16465771	    -17.72733241	     12.07477614	    -11.81476231	      1.54627241	     21.60243214	     -2.62712071	     -4.55241892	    -67.05260246	     -1.81337443	    -11.65274487	      3.25900375	    -11.03201611	      6.11985229	      2.13917183
      0.86266667	     -2.34503198	     -0.24384517	     -0.30704587	     -0.26777582	      1.00891338	      0.33455507	      7.26780731	      4.14615278	      2.24109485	    -17.22100441	     12.04710777	    -11.83684348	      1.46414348	     21.98090791	     -2.52006788	     -4.64641970	    -66.39082567	     -1.34291201	    -11.79263052	      2.94523048	    -11.12209462	      5.91725309	      2.37589691
      0.86683333	     -2.35659618	     -0.06739792	     -0.31027159	     -0.26258489	      1.00951681	      0.33458989	      6.74037330	      3.94768586	      2.24070362	    -16.76977164	     12.04080753	    -11.82237957	      1.43944506	     22.42166395	     -2.33823822	     -4.70769072	    -65.66065005	     -0.92701171	    -11.86717061	      2.86340826	    -11.08577076	      5.68447996	      2.45140020
      0.87100000	     -2.34793537	      0.07581018	     -0.31272750	     -0.25741082	      1.01008888	      0.33464450	      6.18206029	      3.78696902	      2.24008035	    -16.29201962	     12.02112120	    -11.79980880	      1.41670271	     22.83390895	     -2.19789758	     -4.76783854	    -64.90064649	     -0.49977579	    -11.93767240	      2.79093293	    -11.09995701	      5.44613256	      2.57060642
      0.87516667	     -2.25022047	      0.20695468	     -0.31968881	     -0.25220566	      1.01076263	      0.33468885	      5.50346918	      3.64051475	      2.27883735	    -15.76793144	     12.02895357	    -11.83242066	      1.36831953	     23.12208067	     -2.06576162	     -4.81753222	    -64.07510695	     -0.10067652	    -11.93139798	      2.62055655	    -11.22764546	      5.24457762	      2.82452744
      0.87933333	     -2.22014377	      0.32493968	     -0.33600573	     -0.24702151	      1.01127541	      0.33472060	      4.91501060	      3.50554399	      2.30244905	    -15.27085049	     11.96804836	    -11.85067732	      1.28135608	     23.47554454	     -1.94537664	     -4.86689074	    -63.22042122	      0.33561868	    -11.93062261	      2.30465579	    -11.26450351	      5.06589704	      3.03500019
      0.88350000	     -2.24540600	      0.46493422	     -0.32057418	     -0.24185821	      1.01166686	      0.33466937	      4.40907567	      3.33750233	      2.25766881	    -14.82420002	     11.95122105	    -11.81171192	      1.25850546	     23.87849494	     -1.77012636	     -4.86037959	    -62.31020720	      0.70422156	    -11.89009622	      2.23211310	    -11.23074887	      4.87958590	      3.09532833
      0.88766667	     -2.18219886	      0.58276185	     -0.31417357	     -0.23666193	      1.01213070	      0.33464854	      3.78373524	      3.19526474	      2.23002551	    -14.32849459	     11.96221001	    -11.77871168	      1.22250055	     24.16392037	     -1.63090735	     -4.87158621	    -61.35467700	      1.07281510	    -11.81798389	      2.10486439	    -11.31190452	      4.69275787	      3.24769989
      0.89183333	     -2.15596298	      0.70509735	     -0.31167256	     -0.23147610	      1.01252139	      0.33459629	      3.20643342	      3.04508500	      2.20260654	    -13.84586305	     11.93223429	    -11.73380325	      1.18445605	     24.46937956	     -1.47282327	     -4.86410628	    -60.34163277	      1.42656829	    -11.74640135	      1.96751396	    -11.35573863	      4.51651410	      3.38981465
      0.89600000	     -2.14110028	      0.79995418	     -0.30370964	     -0.22628059	      1.01282611	      0.33452898	      2.64356065	      2.92252563	      2.15062217	    -13.36728615	     11.89762327	    -11.68920763	      1.15108972	     24.77616872	     -1.34263384	     -4.84424151	    -59.29667088	      1.76465138	    -11.64643983	      1.84374919	    -11.37272010	      4.37401965	      3.51683293
      0.90016667	     -2.12169394	      0.91014017	     -0.29969663	     -0.22107609	      1.01311790	      0.33444410	      2.07773109	      2.78046315	      2.09609649	    -12.89419065	     11.86550196	    -11.61733712	      1.12107385	     25.05145694	     -1.18599419	     -4.81460331	    -58.18475644	      2.06766609	    -11.55044032	      1.72531566	    -11.40112457	      4.21696551	      3.63882915
      0.90433333	     -2.11281998	      0.99282165	     -0.29203360	     -0.21587315	      1.01332072	      0.33433982	      1.52519424	      2.66642337	      2.02760308	    -12.42459191	     11.83082446	    -11.53763088	      1.09583126	     25.32836597	     -1.05673565	     -4.77297294	    -57.04386899	      2.35936979	    -11.42703018	      1.62084290	    -11.41689482	      4.09627261	      3.76029327
      0.90850000	     -2.13399697	      1.09408439	     -0.29175729	     -0.21065707	      1.01346650	      0.33421860	      1.01756930	      2.52820252	      1.94300112	    -11.98079548	     11.76418220	    -11.42953922	      1.08202315	     25.60917202	     -0.89759503	     -4.71996277	    -55.83375967	      2.60681480	    -11.31516328	      1.56362389	    -11.38815353	      3.96109922	      3.85117173
      0.91266667	     -2.10989780	      1.17765144	     -0.28688092	     -0.20541628	      1.01362028	      0.33409557	      0.44771471	      2.40870706	      1.85282344	    -11.51263255	     11.72207015	    -11.30862211	      1.07049069	     25.82135089	     -0.75637283	     -4.65841538	    -54.57889080	      2.83289632	    -11.19154056	      1.50519708	    -11.41747858	      3.83724229	      3.96826675
      0.91683333	     -2.09671686	      1.24140512	     -0.28465788	     -0.20017144	      1.01370809	      0.33397085	     -0.11111699	      2.31011252	      1.76453502	    -11.04384819	     11.67491096	    -11.18196780	      1.06147107	     26.02901863	     -0.63640867	     -4.58959504	    -53.28444863	      3.03203326	    -11.06474135	      1.45037039	    -11.44049709	      3.73479145	      4.08972914
      0.92100000	     -2.05316059	      1.30220483	     -0.28587545	     -0.19490797	      1.01379780	      0.33384459	     -0.71189845	      2.21454031	      1.68283136	    -10.55778973	     11.66876511	    -11.05246864	      1.05322990	     26.18067875	     -0.51816553	     -4.52135557	    -51.93715745	      3.19267056	    -10.96001545	      1.36604023	    -11.50837090	      3.63640929	      4.24326526
